<mxfile host="drawio-plugin" modified="2022-02-07T08:03:33.697Z" agent="5.0 (X11; Linux x86_64) AppleWebKit/537.36 (KHTML, like Gecko) Chrome/89.0.4389.114 Safari/537.36" etag="ZxcrhUxTZPzHUj5lP0_o" version="15.5.4" type="embed"><diagram id="_1mRCq9ay8fOrSJYsUQ2" name="Page-1"><mxGraphModel dx="1006" dy="701" grid="1" gridSize="10" guides="1" tooltips="1" connect="1" arrows="1" fold="1" page="0" pageScale="1" pageWidth="827" pageHeight="1169" background="#ffffff" math="0" shadow="0"><root><mxCell id="0"/><mxCell id="1" parent="0"/><mxCell id="2" value="" style="rounded=0;whiteSpace=wrap;html=1;strokeWidth=2;" vertex="1" parent="1"><mxGeometry x="80" y="400" width="660" height="360" as="geometry"/></mxCell><mxCell id="fREOgRoSlE-L4PN6QFXZ-4" value="Bot" style="rounded=1;whiteSpace=wrap;html=1;fontSize=14;verticalAlign=top;fontStyle=1" parent="1" vertex="1"><mxGeometry x="483" y="560" width="160" height="110" as="geometry"/></mxCell><mxCell id="_EXnn2r-dNITKwnrBYSb-7" style="edgeStyle=orthogonalEdgeStyle;rounded=0;orthogonalLoop=1;jettySize=auto;html=1;entryX=0.25;entryY=0;entryDx=0;entryDy=0;fontSize=12;startArrow=classic;startFill=1;" parent="1" source="fREOgRoSlE-L4PN6QFXZ-11" target="fREOgRoSlE-L4PN6QFXZ-4" edge="1"><mxGeometry relative="1" as="geometry"/></mxCell><mxCell id="fREOgRoSlE-L4PN6QFXZ-11" value="Data&lt;br&gt;Store" style="shape=cylinder3;whiteSpace=wrap;html=1;boundedLbl=1;backgroundOutline=1;size=10.8333333333334;rounded=0;strokeWidth=1;fontSize=14;fontStyle=1" parent="1" vertex="1"><mxGeometry x="491" y="435" width="64" height="70" as="geometry"/></mxCell><mxCell id="fREOgRoSlE-L4PN6QFXZ-12" value="" style="group" parent="1" vertex="1" connectable="0"><mxGeometry x="563" y="591" width="74.61" height="85.2" as="geometry"/></mxCell><mxCell id="fREOgRoSlE-L4PN6QFXZ-13" value="" style="shape=note;whiteSpace=wrap;html=1;backgroundOutline=1;darkOpacity=0.05;fontSize=14;size=12;fillColor=#f5f5f5;strokeColor=#666666;fontColor=#333333;" parent="fREOgRoSlE-L4PN6QFXZ-12" vertex="1"><mxGeometry x="20" y="10" width="37.11" height="46" as="geometry"/></mxCell><mxCell id="fREOgRoSlE-L4PN6QFXZ-14" value="JSON" style="rounded=0;whiteSpace=wrap;html=1;fillColor=#ffffff;fontSize=12;" parent="fREOgRoSlE-L4PN6QFXZ-12" vertex="1"><mxGeometry x="14.736842105263158" y="32" width="47.89473684210526" height="18" as="geometry"/></mxCell><mxCell id="fREOgRoSlE-L4PN6QFXZ-15" value="Configuration" style="text;html=1;strokeColor=none;fillColor=none;align=center;verticalAlign=middle;whiteSpace=wrap;rounded=0;fontSize=12;" parent="fREOgRoSlE-L4PN6QFXZ-12" vertex="1"><mxGeometry x="3.68" y="60" width="70" height="15.2" as="geometry"/></mxCell><mxCell id="_EXnn2r-dNITKwnrBYSb-1" value="" style="group" parent="1" vertex="1" connectable="0"><mxGeometry x="184" y="570.5" width="50" height="115" as="geometry"/></mxCell><mxCell id="fREOgRoSlE-L4PN6QFXZ-8" value="" style="verticalLabelPosition=bottom;verticalAlign=top;html=1;shadow=0;dashed=0;strokeWidth=1;shape=mxgraph.android.phone2;fontSize=14;" parent="_EXnn2r-dNITKwnrBYSb-1" vertex="1"><mxGeometry width="50" height="90" as="geometry"/></mxCell><mxCell id="fREOgRoSlE-L4PN6QFXZ-9" value="User" style="text;html=1;strokeColor=none;fillColor=none;align=center;verticalAlign=middle;whiteSpace=wrap;rounded=0;dashed=1;fontSize=14;fontStyle=1" parent="_EXnn2r-dNITKwnrBYSb-1" vertex="1"><mxGeometry x="5" y="95" width="40" height="20" as="geometry"/></mxCell><mxCell id="_EXnn2r-dNITKwnrBYSb-3" value="" style="group" parent="1" vertex="1" connectable="0"><mxGeometry x="296" y="525" width="120" height="210" as="geometry"/></mxCell><mxCell id="fREOgRoSlE-L4PN6QFXZ-10" value="Telegram Bot API" style="text;html=1;strokeColor=none;fillColor=none;align=center;verticalAlign=middle;whiteSpace=wrap;rounded=0;dashed=1;fontSize=14;fontStyle=1" parent="_EXnn2r-dNITKwnrBYSb-3" vertex="1"><mxGeometry y="180" width="120" height="30" as="geometry"/></mxCell><mxCell id="_EXnn2r-dNITKwnrBYSb-2" value="" style="group" parent="_EXnn2r-dNITKwnrBYSb-3" vertex="1" connectable="0"><mxGeometry x="32.5" width="50" height="180" as="geometry"/></mxCell><mxCell id="fREOgRoSlE-L4PN6QFXZ-6" value="" style="rounded=0;whiteSpace=wrap;html=1;fontSize=14;" parent="_EXnn2r-dNITKwnrBYSb-2" vertex="1"><mxGeometry width="50" height="180" as="geometry"/></mxCell><mxCell id="fREOgRoSlE-L4PN6QFXZ-7" value="" style="shape=image;verticalLabelPosition=bottom;labelBackgroundColor=#ffffff;verticalAlign=top;aspect=fixed;imageAspect=0;image=https://upload.wikimedia.org/wikipedia/commons/thumb/8/82/Telegram_logo.svg/1024px-Telegram_logo.svg.png;" parent="_EXnn2r-dNITKwnrBYSb-2" vertex="1"><mxGeometry x="5" y="70" width="40" height="40" as="geometry"/></mxCell><mxCell id="_EXnn2r-dNITKwnrBYSb-4" style="edgeStyle=orthogonalEdgeStyle;rounded=0;orthogonalLoop=1;jettySize=auto;html=1;entryX=0;entryY=0.5;entryDx=0;entryDy=0;fontSize=12;startArrow=classic;startFill=1;" parent="1" source="fREOgRoSlE-L4PN6QFXZ-8" target="fREOgRoSlE-L4PN6QFXZ-6" edge="1"><mxGeometry relative="1" as="geometry"/></mxCell><mxCell id="_EXnn2r-dNITKwnrBYSb-5" style="edgeStyle=orthogonalEdgeStyle;rounded=0;orthogonalLoop=1;jettySize=auto;html=1;entryX=0;entryY=0.5;entryDx=0;entryDy=0;fontSize=12;startArrow=classic;startFill=1;" parent="1" source="fREOgRoSlE-L4PN6QFXZ-6" target="fREOgRoSlE-L4PN6QFXZ-4" edge="1"><mxGeometry relative="1" as="geometry"/></mxCell><mxCell id="_EXnn2r-dNITKwnrBYSb-8" style="edgeStyle=orthogonalEdgeStyle;rounded=0;orthogonalLoop=1;jettySize=auto;html=1;entryX=0.75;entryY=0;entryDx=0;entryDy=0;fontSize=12;startArrow=classic;startFill=1;" parent="1" source="_EXnn2r-dNITKwnrBYSb-6" target="fREOgRoSlE-L4PN6QFXZ-4" edge="1"><mxGeometry relative="1" as="geometry"/></mxCell><mxCell id="_EXnn2r-dNITKwnrBYSb-6" value="Media&lt;br&gt;Store" style="shape=cylinder3;whiteSpace=wrap;html=1;boundedLbl=1;backgroundOutline=1;size=10.8333333333334;rounded=0;strokeWidth=1;fontSize=14;fontStyle=1" parent="1" vertex="1"><mxGeometry x="571" y="435" width="64" height="70" as="geometry"/></mxCell><mxCell id="3" value="" style="verticalLabelPosition=bottom;verticalAlign=top;html=1;shape=card;whiteSpace=wrap;size=20;arcSize=12;direction=west;fillColor=#ffe6cc;strokeColor=#000000;" vertex="1" parent="1"><mxGeometry x="80" y="400" width="180" height="40" as="geometry"/></mxCell><mxCell id="4" value="&lt;font style=&quot;font-size: 14px&quot;&gt;Geo Collector Bot&lt;br&gt;Architecture&lt;/font&gt;" style="text;html=1;strokeColor=none;fillColor=none;align=center;verticalAlign=middle;whiteSpace=wrap;rounded=0;fontStyle=0" vertex="1" parent="1"><mxGeometry x="100" y="405" width="140" height="30" as="geometry"/></mxCell></root></mxGraphModel></diagram></mxfile>